<svg width="32" height="30" viewBox="0 0 32 30" fill="none" xmlns="http://www.w3.org/2000/svg">
<g id="Social Icons" clip-path="url(#clip0_1_288)">
<path id="Vector" d="M16 2.70117C20.275 2.70117 20.7813 2.71875 22.4625 2.78906C24.025 2.85352 24.8688 3.09961 25.4313 3.30469C26.175 3.57422 26.7125 3.90234 27.2688 4.42383C27.8313 4.95117 28.175 5.44922 28.4625 6.14648C28.6813 6.67383 28.9438 7.4707 29.0125 8.92969C29.0875 10.5117 29.1063 10.9863 29.1063 14.9883C29.1063 18.9961 29.0875 19.4707 29.0125 21.0469C28.9438 22.5117 28.6813 23.3027 28.4625 23.8301C28.175 24.5273 27.825 25.0313 27.2688 25.5527C26.7063 26.0801 26.175 26.4023 25.4313 26.6719C24.8688 26.877 24.0188 27.123 22.4625 27.1875C20.775 27.2578 20.2688 27.2754 16 27.2754C11.725 27.2754 11.2188 27.2578 9.5375 27.1875C7.975 27.123 7.13125 26.877 6.56875 26.6719C5.825 26.4023 5.2875 26.0742 4.73125 25.5527C4.16875 25.0254 3.825 24.5273 3.5375 23.8301C3.31875 23.3027 3.05625 22.5059 2.9875 21.0469C2.9125 19.4648 2.89375 18.9902 2.89375 14.9883C2.89375 10.9805 2.9125 10.5059 2.9875 8.92969C3.05625 7.46484 3.31875 6.67383 3.5375 6.14648C3.825 5.44922 4.175 4.94531 4.73125 4.42383C5.29375 3.89648 5.825 3.57422 6.56875 3.30469C7.13125 3.09961 7.98125 2.85352 9.5375 2.78906C11.2188 2.71875 11.725 2.70117 16 2.70117ZM16 0C11.6563 0 11.1125 0.0175781 9.40625 0.0878906C7.70625 0.158203 6.5375 0.416016 5.525 0.785156C4.46875 1.17187 3.575 1.68164 2.6875 2.51953C1.79375 3.35156 1.25 4.18945 0.8375 5.17383C0.44375 6.12891 0.16875 7.21875 0.09375 8.8125C0.01875 10.418 0 10.9277 0 15C0 19.0723 0.01875 19.582 0.09375 21.1816C0.16875 22.7754 0.44375 23.8711 0.8375 24.8203C1.25 25.8105 1.79375 26.6484 2.6875 27.4805C3.575 28.3125 4.46875 28.8281 5.51875 29.209C6.5375 29.5781 7.7 29.8359 9.4 29.9062C11.1063 29.9766 11.65 29.9941 15.9938 29.9941C20.3375 29.9941 20.8813 29.9766 22.5875 29.9062C24.2875 29.8359 25.4563 29.5781 26.4688 29.209C27.5188 28.8281 28.4125 28.3125 29.3 27.4805C30.1875 26.6484 30.7375 25.8105 31.1438 24.8262C31.5375 23.8711 31.8125 22.7813 31.8875 21.1875C31.9625 19.5879 31.9813 19.0781 31.9813 15.0059C31.9813 10.9336 31.9625 10.4238 31.8875 8.82422C31.8125 7.23047 31.5375 6.13477 31.1438 5.18555C30.75 4.18945 30.2063 3.35156 29.3125 2.51953C28.425 1.6875 27.5313 1.17188 26.4813 0.791016C25.4625 0.421875 24.3 0.164062 22.6 0.09375C20.8875 0.0175781 20.3438 0 16 0Z" fill="white"/>
<path id="Vector_2" d="M16 7.29492C11.4625 7.29492 7.78125 10.7461 7.78125 15C7.78125 19.2539 11.4625 22.7051 16 22.7051C20.5375 22.7051 24.2188 19.2539 24.2188 15C24.2188 10.7461 20.5375 7.29492 16 7.29492ZM16 19.998C13.0563 19.998 10.6687 17.7598 10.6687 15C10.6687 12.2402 13.0563 10.002 16 10.002C18.9438 10.002 21.3312 12.2402 21.3312 15C21.3312 17.7598 18.9438 19.998 16 19.998Z" fill="white"/>
<path id="Vector_3" d="M26.4625 6.99024C26.4625 7.98633 25.6 8.78907 24.5438 8.78907C23.4813 8.78907 22.625 7.98047 22.625 6.99024C22.625 5.99414 23.4875 5.19141 24.5438 5.19141C25.6 5.19141 26.4625 6 26.4625 6.99024Z" fill="white"/>
</g>
<defs>
<clipPath id="clip0_1_288">
<rect width="32" height="30" fill="white"/>
</clipPath>
</defs>
</svg>
