<svg width="28" height="31" viewBox="0 0 28 31" fill="none" xmlns="http://www.w3.org/2000/svg">
<path d="M0 31L1.97756 23.0395C0.757263 20.7093 0.116051 18.0678 0.117223 15.3592C0.12074 6.89104 6.37461 0 14.0586 0C17.7875 0.00129167 21.2878 1.60167 23.9206 4.50533C26.5523 7.409 28.0012 11.2685 28 15.3734C27.9965 23.8429 21.7426 30.7339 14.0586 30.7339C11.7259 30.7326 9.42711 30.0881 7.39094 28.8636L0 31ZM7.73323 26.0826C9.6979 27.3678 11.5735 28.1377 14.0539 28.139C20.4403 28.139 25.6426 22.4117 25.6462 15.3708C25.6485 8.31575 20.4707 2.59625 14.0633 2.59367C7.67228 2.59367 2.47342 8.32092 2.47107 15.3605C2.4699 18.2345 3.2342 20.3864 4.51779 22.6377L3.34673 27.3497L7.73323 26.0826ZM21.0815 19.025C20.9947 18.8648 20.7626 18.7692 20.4133 18.5767C20.0651 18.3843 18.3525 17.4556 18.0325 17.3277C17.7136 17.1998 17.4815 17.1352 17.2483 17.5202C17.0162 17.9038 16.348 18.7692 16.1452 19.025C15.9424 19.2807 15.7384 19.313 15.3903 19.1205C15.0421 18.9281 13.9191 18.5238 12.5886 17.2153C11.5535 16.1975 10.8537 14.9407 10.6509 14.5558C10.4481 14.1722 10.6298 13.9642 10.8033 13.773C10.9604 13.6012 11.1515 13.3248 11.3261 13.1001C11.5031 12.8779 11.5606 12.7178 11.6778 12.4607C11.7939 12.205 11.7364 11.9802 11.6485 11.7878C11.5606 11.5966 10.8643 9.70687 10.5747 8.93833C10.291 8.19046 10.0039 8.29121 9.7905 8.27958L9.12233 8.26667C8.89023 8.26667 8.51277 8.36225 8.19392 8.74717C7.87507 9.13208 6.9748 10.0595 6.9748 11.9492C6.9748 13.8389 8.22323 15.664 8.39672 15.9198C8.57138 16.1755 10.8525 20.0531 14.347 21.7155C15.1781 22.1107 15.8275 22.3471 16.3327 22.5241C17.1674 22.816 17.927 22.7747 18.5272 22.6765C19.1965 22.5667 20.588 21.7478 20.8787 20.8514C21.1694 19.9537 21.1694 19.1851 21.0815 19.025Z" fill="white"/>
</svg>
